<?xml version="1.0" standalone="no"?>
<!DOCTYPE svg PUBLIC "-//W3C//DTD SVG 20010904//EN"
 "http://www.w3.org/TR/2001/REC-SVG-20010904/DTD/svg10.dtd">
<svg version="1.0" xmlns="http://www.w3.org/2000/svg"
 width="500.000000pt" height="500.000000pt" viewBox="0 0 500.000000 500.000000"
 preserveAspectRatio="xMidYMid meet">

<g transform="translate(0.000000,500.000000) scale(0.100000,-0.100000)"
fill="#000000" stroke="none">
<path d="M2586 3560 c-60 -18 -96 -73 -96 -146 0 -184 272 -199 297 -16 8 61
-27 129 -81 153 -44 20 -75 22 -120 9z"/>
<path d="M2174 3401 c-81 -38 -129 -140 -105 -223 28 -94 103 -151 197 -150
60 0 97 17 142 63 83 85 66 230 -36 300 -47 32 -141 37 -198 10z"/>
<path d="M2918 3404 c-61 -32 -78 -129 -32 -183 71 -85 214 -38 214 70 0 101
-96 160 -182 113z"/>
<path d="M3058 3111 c-28 -25 -33 -36 -33 -76 0 -40 5 -51 33 -76 72 -64 172
-20 172 76 0 96 -100 140 -172 76z"/>
<path d="M3104 2830 c-53 -21 -70 -96 -34 -143 27 -34 70 -43 109 -23 60 31
70 99 22 147 -30 29 -58 35 -97 19z"/>
<path d="M2998 2560 c-25 -26 -29 -36 -24 -63 7 -39 39 -67 76 -67 37 0 69 28
76 67 5 27 1 37 -24 63 -17 16 -40 30 -52 30 -12 0 -35 -14 -52 -30z"/>
<path d="M2819 2419 c-30 -30 -23 -88 13 -108 54 -30 110 18 95 81 -6 24 -43
48 -72 48 -8 0 -24 -9 -36 -21z"/>
<path d="M2625 2355 c-14 -13 -25 -33 -25 -43 0 -47 88 -73 110 -33 17 32 12
69 -12 85 -31 22 -45 20 -73 -9z"/>
</g>
</svg>
