<svg id="svg" version="1.1" 
xmlns="http://www.w3.org/2000/svg" 
xmlns:xlink="http://www.w3.org/1999/xlink" 
width="100" height="100" fill="none" viewBox="0, 0, 400,400"><g 
id="svgg"><path 
id="path0" d="M0.000 200.000 L 0.000 400.000 200.000 400.000 
L 400.000 400.000 400.000 200.000 L 400.000 0.000 200.000 0.000 
L 0.000 0.000 0.000 200.000 M187.567 94.966 C 188.711 
96.146,188.896 96.619,188.923 98.432 C 188.996 103.281,
182.757 105.037,180.061 100.925 C 176.964 96.200,183.632 
90.906,187.567 94.966 M170.386 97.519 C 172.211 98.416,173.600 
100.524,173.600 102.398 C 173.600 108.484,165.807 110.228,
162.986 104.772 C 160.729 100.408,165.916 95.324,170.386 97.519 
M155.446 107.965 C 160.386 110.208,160.681 117.005,155.942 119.369 
C 154.228 120.224,152.588 120.162,150.529 119.166 C 143.398 
115.713,148.237 104.691,155.446 107.965 M214.840 114.863 C 
223.322 117.753,225.987 128.103,220.001 134.904 C 210.705 
145.464,194.057 134.205,199.862 121.284 C 202.181 116.122,
209.423 113.017,214.840 114.863 M150.080 126.457 C 156.098 
130.743,153.207 140.000,145.849 140.000 C 138.782 140.000,
135.820 131.698,141.235 127.063 C 143.628 125.014,147.665 
124.738,150.080 126.457 M188.029 127.544 C 192.341 129.645,
194.496 132.113,196.460 137.200 C 197.538 139.994,197.140 
145.821,195.666 148.838 C 189.183 162.100,170.234 160.822,
165.636 146.814 C 161.314 133.649,175.501 121.440,188.029 
127.544 M242.634 127.042 C 247.920 129.242,250.047 136.772,
246.777 141.709 C 241.604 149.518,229.349 146.559,228.518 
137.300 C 227.804 129.352,235.226 123.959,242.634 127.042 M149.172 147.680 C 157.424 150.453,157.307 161.788,149.000 164.357 C 145.784 165.352,141.250 163.380,139.361 160.165 C 135.565 153.705,142.153 145.322,149.172 147.680 M254.275 149.438 C 257.524 150.905,259.185 154.492,258.661 158.912 C 257.950 164.918,250.320 167.977,245.296 164.271 C 236.715 157.940,244.526 145.036,254.275 149.438 M221.786 156.029 C 234.624 160.833,235.620 179.248,223.367 185.288 C 208.273 192.730,193.429 175.075,203.350 161.479 C 207.275 156.100,215.487 153.672,221.786 156.029 M163.009 167.830 C 166.396 169.245,169.275 174.520,168.675 178.214 C 167.099 187.928,154.249 189.973,149.913 181.200 C 145.730 172.736,154.159 164.132,163.009 167.830 M255.020 173.790 C 258.697 175.945,259.893 181.528,257.351 184.669 C 252.540 190.614,243.876 187.838,243.869 180.349 C 243.863 174.446,249.990 170.843,255.020 173.790 M191.288 175.370 C 202.953 180.728,199.202 198.400,186.399 198.400 C 178.906 198.400,174.200 193.771,174.200 186.400 C 174.200 177.420,183.160 171.637,191.288 175.370 M246.969 193.761 C 252.801 197.178,250.631 205.600,243.919 205.600 C 241.410 205.600,239.848 204.777,238.598 202.797 C 235.131 197.306,241.425 190.512,246.969 193.761 M231.878 205.582 C 235.542 207.816,235.712 212.827,232.201 215.100 C 227.479 218.157,221.592 213.175,224.014 208.171 C 225.553 204.991,229.031 203.846,231.878 205.582 M214.926 210.050 C 218.217 211.745,218.935 215.518,216.495 218.300 C 215.091 219.902,210.365 219.625,209.020 217.862 C 206.007 213.911,210.608 207.826,214.926 210.050 " stroke="none" fill="#fbfbfb" fill-rule="evenodd"></path><path id="path1" d="M208.000 114.971 C 202.274 116.560,199.105 120.692,199.081 126.600 C 199.024 140.695,218.428 143.326,222.684 129.800 C 225.373 121.255,216.747 112.544,208.000 114.971 M175.971 126.942 C 167.807 129.558,162.430 140.565,166.029 147.295 C 166.233 147.677,166.400 148.184,166.400 148.423 C 166.400 149.136,168.858 152.507,170.380 153.883 C 174.869 157.938,182.282 159.032,187.669 156.434 C 200.852 150.076,199.787 132.450,185.881 126.851 C 184.459 126.278,177.852 126.339,175.971 126.942 M234.215 127.223 C 224.811 131.913,227.939 145.789,238.400 145.789 C 246.977 145.789,251.307 136.218,245.729 129.588 C 243.281 126.679,237.631 125.518,234.215 127.223 M246.600 149.655 C 238.605 153.751,241.323 165.600,250.258 165.600 C 257.753 165.600,261.438 156.618,256.208 151.098 C 253.978 148.745,249.647 148.094,246.600 149.655 M248.259 173.601 C 240.430 177.510,244.337 189.259,252.844 187.390 C 259.491 185.930,260.524 176.870,254.400 173.742 C 252.211 172.624,250.304 172.580,248.259 173.601 M240.504 194.370 C 234.458 198.750,239.574 207.910,246.459 205.033 C 249.173 203.899,250.812 200.680,249.981 198.117 C 248.486 193.510,244.091 191.772,240.504 194.370 M226.937 205.419 C 222.883 207.195,222.806 213.335,226.812 215.406 C 228.415 216.235,229.828 216.148,231.685 215.104 C 237.553 211.806,233.098 202.719,226.937 205.419 M210.476 210.787 C 207.737 212.505,207.418 216.455,209.864 218.379 C 211.611 219.753,214.963 219.538,216.440 217.958 C 220.161 213.974,215.099 207.886,210.476 210.787 " stroke="none" fill="#373737" fill-rule="evenodd"></path><path id="path2" d="M180.738 95.217 C 176.392 99.785,182.629 105.999,187.411 101.865 C 188.849 100.622,188.953 100.387,188.923 98.432 C 188.852 93.725,183.978 91.811,180.738 95.217 M166.600 97.241 C 163.300 98.255,161.526 101.950,162.986 104.772 C 165.164 108.984,170.949 109.190,172.976 105.129 C 175.154 100.762,171.173 95.836,166.600 97.241 M150.600 108.021 C 145.796 110.367,145.755 116.855,150.529 119.166 C 154.937 121.299,159.257 118.643,159.257 113.800 C 159.257 109.071,154.691 106.023,150.600 108.021 M213.200 114.800 C 214.568 115.238,215.619 115.238,214.600 114.800 C 214.160 114.611,213.440 114.462,213.000 114.468 C 212.357 114.477,212.396 114.543,213.200 114.800 M201.978 118.300 L 200.600 119.800 202.100 118.422 C 202.925 117.663,203.600 116.988,203.600 116.922 C 203.600 116.616,203.262 116.904,201.978 118.300 M143.747 125.460 C 142.417 125.746,139.639 128.332,138.988 129.890 C 136.343 136.220,143.465 142.534,149.454 139.170 C 157.130 134.858,152.439 123.589,143.747 125.460 M179.700 126.291 C 180.525 126.378,181.875 126.378,182.700 126.291 C 183.525 126.205,182.850 126.134,181.200 126.134 C 179.550 126.134,178.875 126.205,179.700 126.291 M219.178 135.500 L 217.800 137.000 219.300 135.622 C 220.696 134.338,220.984 134.000,220.678 134.000 C 220.612 134.000,219.937 134.675,219.178 135.500 M228.524 136.200 C 228.526 137.520,228.601 138.012,228.690 137.293 C 228.779 136.574,228.777 135.494,228.686 134.893 C 228.595 134.292,228.522 134.880,228.524 136.200 M208.715 138.872 C 209.092 139.021,210.120 139.144,211.000 139.144 C 211.880 139.144,212.908 139.021,213.285 138.872 C 213.662 138.722,212.634 138.600,211.000 138.600 C 209.366 138.600,208.338 138.722,208.715 138.872 M196.924 142.200 C 196.926 143.520,197.001 144.012,197.090 143.293 C 197.179 142.574,197.177 141.494,197.086 140.893 C 196.995 140.292,196.922 140.880,196.924 142.200 M164.828 143.633 C 164.844 144.165,165.019 144.960,165.219 145.400 C 165.471 145.958,165.507 145.715,165.338 144.600 C 165.055 142.743,164.787 142.236,164.828 143.633 M236.200 145.997 C 236.964 146.328,239.914 146.555,239.567 146.256 C 239.475 146.177,238.500 146.009,237.400 145.882 C 236.113 145.733,235.685 145.774,236.200 145.997 M144.055 147.748 C 137.724 150.039,136.274 158.821,141.582 162.727 C 145.930 165.928,151.523 164.803,154.231 160.183 C 158.113 153.559,151.232 145.150,144.055 147.748 M241.849 154.615 C 241.712 154.973,241.615 155.566,241.634 155.933 C 241.653 156.300,241.827 156.069,242.021 155.420 C 242.398 154.158,242.265 153.533,241.849 154.615 M211.248 155.829 C 203.055 158.402,198.210 167.616,200.839 175.625 C 206.456 192.733,231.218 189.656,231.929 171.761 C 232.378 160.448,222.000 152.453,211.248 155.829 M178.800 157.980 C 179.799 158.320,182.282 158.532,181.967 158.251 C 181.875 158.169,180.900 157.999,179.800 157.872 C 178.451 157.716,178.126 157.751,178.800 157.980 M256.228 163.171 C 255.611 163.815,254.581 164.559,253.940 164.825 C 253.299 165.090,252.853 165.387,252.950 165.483 C 253.269 165.802,255.379 164.493,256.575 163.236 C 257.221 162.556,257.660 162.000,257.550 162.000 C 257.440 162.000,256.845 162.527,256.228 163.171 M249.505 165.883 C 250.002 165.979,250.722 165.975,251.105 165.875 C 251.487 165.775,251.080 165.696,250.200 165.701 C 249.320 165.705,249.007 165.787,249.505 165.883 M156.367 167.161 C 150.312 168.393,147.069 175.446,149.913 181.200 C 152.861 187.165,161.316 188.729,165.675 184.115 C 172.671 176.710,166.317 165.136,156.367 167.161 M181.426 175.208 C 171.817 178.960,171.592 193.256,181.075 197.450 C 191.525 202.072,202.053 191.293,197.059 181.085 C 194.233 175.309,187.577 172.807,181.426 175.208 M258.493 180.400 C 258.493 181.170,258.575 181.485,258.676 181.100 C 258.776 180.715,258.776 180.085,258.676 179.700 C 258.575 179.315,258.493 179.630,258.493 180.400 M246.087 185.805 C 246.904 186.660,247.638 187.279,247.717 187.180 C 247.797 187.081,247.128 186.381,246.231 185.625 L 244.600 184.250 246.087 185.805 M249.338 187.694 C 249.592 187.856,250.430 187.988,251.200 187.988 C 251.970 187.988,252.808 187.856,253.062 187.694 C 253.316 187.532,252.478 187.400,251.200 187.400 C 249.922 187.400,249.084 187.532,249.338 187.694 M242.433 192.947 C 242.525 193.028,243.479 193.188,244.554 193.304 C 245.749 193.432,246.293 193.378,245.954 193.163 C 245.435 192.835,242.071 192.628,242.433 192.947 M223.417 209.524 C 223.281 210.143,223.322 211.060,223.508 211.563 C 223.768 212.265,223.846 212.003,223.846 210.439 C 223.846 208.111,223.765 207.938,223.417 209.524 M234.501 210.600 C 234.505 211.480,234.587 211.793,234.683 211.295 C 234.779 210.798,234.775 210.078,234.675 209.695 C 234.575 209.313,234.496 209.720,234.501 210.600 M211.463 209.900 C 211.362 210.065,212.146 210.201,213.205 210.202 C 214.264 210.203,214.921 210.071,214.665 209.908 C 214.056 209.521,211.699 209.515,211.463 209.900 M216.434 211.447 C 216.965 212.133,217.480 212.623,217.579 212.535 C 217.677 212.447,217.243 211.886,216.613 211.288 L 215.469 210.200 216.434 211.447 M217.693 214.800 C 217.693 215.570,217.775 215.885,217.876 215.500 C 217.976 215.115,217.976 214.485,217.876 214.100 C 217.775 213.715,217.693 214.030,217.693 214.800 " stroke="none" fill="#fc944c" fill-rule="evenodd">
</path></g></svg>